<svg xmlns="http://www.w3.org/2000/svg" width="180" height="106"><path fill="#fff" d="M54.117 48.474c-.497-5.108-2.472-9.661-5.6-12.82-3.241-3.273-7.53-4.926-12.747-4.926-11.729 0-18.729 9.615-18.729 18.923 0 10.748 8.049 18.856 18.729 18.856 6.751 0 12.454-3.272 15.852-8.914.113-.158.214-.327.294-.509.134-.338.214-.714.214-1.097 0-.396-.08-.771-.214-1.097-.147-.341-.35-.647-.611-.908-.247-.25-.553-.465-.891-.599-.338-.148-.711-.227-1.094-.227-.397 0-.757.079-1.095.227-.34.135-.644.349-.904.599-.113.125-.214.248-.316.386l-.057.09c-2.269 4.179-6.378 6.626-11.177 6.626-6.593 0-11.81-4.679-12.633-11.2h28.214c.394 0 .768-.08 1.107-.229.339-.135.633-.339.893-.599.258-.26.461-.566.597-.894.136-.318.216-.668.226-1.044l-.056-.633v-.011zm-30.923-2.017c1.354-6.104 6.434-10.316 12.577-10.316 5.883 0 10.682 4.122 12.127 10.316h-24.704zm61.139 44.014c-.138-.448-.233-.776-.285-.984-.141.641-.346 1.341-.617 2.102l-1.031 2.975h3.328l-1.07-3.109c-.079-.208-.187-.536-.325-.984zm13.095 1.8c.359-.247.539-.668.539-1.262 0-.536-.194-.924-.582-1.164-.388-.24-1.004-.359-1.848-.359h-1.617v3.156h1.797c.781 0 1.351-.123 1.711-.371zm-81.691-61.305c-.226-.091-.463-.147-.7-.181h-.225c-.18 0-.36 0-.531.023-3.567.135-6.682 1.8-8.681 4.575v-1.846c-.091-.815-.52-1.529-1.152-1.981-.463-.339-1.027-.544-1.648-.544s-1.185.204-1.648.544c-.701.497-1.152 1.335-1.152 2.263v31.596c0 .906.419 1.711 1.05 2.254.52.419 1.174.681 1.885.681.711 0 1.366-.261 1.874-.681.566-.475.96-1.167 1.04-1.948v-19.331c0-6.127 4.357-9.241 8.851-9.694h.023l.486-.046h.021c.17-.034.351-.079.508-.147 1.118-.419 1.919-1.506 1.919-2.775 0-1.268-.801-2.344-1.92-2.762zm124.834.049c-1.662 0-3.009 1.351-3.009 3.018v31.299c0 1.668 1.347 3.02 3.009 3.02 1.661 0 3.009-1.352 3.009-3.02v-31.299c.001-1.667-1.348-3.018-3.009-3.018zm-42.909 63.573c-.406-.286-1.023-.43-1.852-.43h-1.89v3.617h1.984c.781 0 1.371-.15 1.769-.449.398-.299.598-.772.598-1.418.001-.594-.203-1.034-.609-1.32zm42.77-75.667c-2.301 0-4.173 1.888-4.173 4.209 0 2.321 1.872 4.21 4.173 4.21 2.303 0 4.174-1.889 4.174-4.21.001-2.321-1.871-4.209-4.174-4.209zm-24.53 12.158c-.54-.046-1.085-.07-1.624-.07-3.996 0-7.735 1.337-10.799 3.582l3.893-27.778.048-.533c.087-2.762-2.06-5.074-4.798-5.169-2.741-.091-5.032 2.075-5.129 4.836l-1.095 33.387c-3.727-5.314-9.842-8.736-16.72-8.736-.727 0-1.458.041-2.182.118-5.15.549-9.794 3-13.203 6.895l-1.023-33.019-.024-.383c-.292-2.602-2.621-4.474-5.198-4.178-2.58.291-4.435 2.639-4.144 5.24 0 0 5.311 47.923 5.341 48.206 1.109 10.56 9.874 18.523 20.388 18.523.722 0 1.459-.04 2.181-.117 7.651-.816 13.875-5.803 16.708-12.473.48.788 1.001 1.556 1.602 2.275 3.181 3.82 7.641 6.162 12.569 6.594.538.047 1.086.072 1.622.072 9.505 0 17.599-7.49 18.424-17.052.429-4.969-1.088-9.808-4.268-13.626-3.18-3.819-7.644-6.161-12.569-6.594zm-34.714 34.838c-.518.054-1.039.083-1.555.083-7.463 0-13.685-5.654-14.471-13.154-.409-3.904.711-7.735 3.159-10.788 2.449-3.054 5.93-4.959 9.799-5.375.516-.055 1.043-.082 1.558-.082 7.463 0 13.682 5.653 14.471 13.151.848 8.061-4.966 15.314-12.961 16.165zm45.625-15.14c-.558 6.489-6.049 11.572-12.498 11.572-.362 0-.737-.014-1.106-.049-3.341-.295-6.371-1.883-8.531-4.473-2.16-2.591-3.185-5.874-2.897-9.247.563-6.489 6.049-11.571 12.498-11.571.364 0 .742.016 1.108.047 3.343.292 6.37 1.883 8.529 4.473 2.16 2.591 3.184 5.877 2.897 9.248zm-18.313 30.569h-37c-6.351 0-11.5 5.149-11.5 11.5v1c0 6.351 5.149 11.5 11.5 11.5h37c6.351 0 11.5-5.149 11.5-11.5v-1c0-6.352-5.149-11.5-11.5-11.5zm-31.394 18h-6.703v-11.422h1.867v9.82h4.836v1.602zm10.255 0l-1.141-3.172h-4.367l-1.117 3.172h-1.969l4.273-11.469h2.031l4.273 11.469h-1.983zm11.805-.872c-.716.581-1.712.871-2.988.871h-4.125v-11.421h3.391c1.573 0 2.71.229 3.41.688.7.458 1.051 1.182 1.051 2.172 0 .667-.172 1.221-.516 1.664-.344.443-.839.721-1.484.836v.078c.802.151 1.392.449 1.769.895.378.445.566 1.048.566 1.809 0 1.024-.358 1.828-1.074 2.408zm10.134.161c-.734.578-1.748.867-3.039.867-1.292 0-2.349-.201-3.172-.602v-1.766c.521.245 1.074.438 1.66.578.586.141 1.131.211 1.637.211.74 0 1.285-.141 1.637-.422.352-.281.527-.659.527-1.133 0-.427-.161-.789-.484-1.086-.323-.297-.99-.648-2-1.055-1.042-.422-1.776-.904-2.203-1.445-.427-.542-.641-1.193-.641-1.953 0-.953.339-1.703 1.016-2.25.677-.547 1.586-.82 2.727-.82 1.094 0 2.182.24 3.266.719l-.594 1.523c-1.016-.427-1.922-.641-2.719-.641-.604 0-1.062.132-1.375.395s-.469.611-.469 1.043c0 .297.062.551.188.762.125.211.331.41.617.598s.802.435 1.547.742c.839.349 1.453.675 1.844.977.391.302.677.643.859 1.023.182.38.273.828.273 1.344-.001 1.016-.368 1.812-1.102 2.391zm58.854-48.956l11.145-13.745c1.05-1.292.854-3.194-.434-4.246-.559-.456-1.231-.678-1.899-.678-.874 0-1.74.38-2.335 1.111l-10.356 12.774-10.356-12.774c-.595-.732-1.461-1.111-2.335-1.111-.669 0-1.34.222-1.899.678-1.288 1.052-1.484 2.955-.434 4.246l11.146 13.745-11.144 13.747c-1.049 1.292-.854 3.195.434 4.247.558.455 1.23.677 1.897.677.874 0 1.741-.38 2.336-1.114l10.356-12.773 10.356 12.773c.595.734 1.462 1.114 2.336 1.114.667 0 1.339-.222 1.897-.677 1.289-1.053 1.484-2.956.434-4.247l-11.145-13.747z"/></svg>